<?xml version="1.0" encoding="UTF-8"?>
<svg width="22px" height="22px" viewBox="0 0 22 22" version="1.1" xmlns="http://www.w3.org/2000/svg" xmlns:xlink="http://www.w3.org/1999/xlink">
    <title>images/SVG/close-icon_white</title>
    <g id="UI-Elements" stroke="none" stroke-width="1" fill="none" fill-rule="evenodd">
        <g id="Assets" transform="translate(-970, -4871)">
            <g id="close-icon_white" transform="translate(970, 4871)">
                <rect id="Rectangle" fill="#D8D8D8" opacity="0" x="0" y="0" width="22" height="22"></rect>
                <g id="icons/ic_close" transform="translate(4, 4)" fill="#FFFFFF">
                    <path d="M13.6487908,0.351209155 C14.0328301,0.735248408 14.108914,1.29220283 13.842417,1.64521513 L13.7748206,1.7228877 L8.388,7.109 L13.5565509,12.2771123 C13.9005273,12.6210887 13.8441019,13.2352101 13.4305211,13.6487908 C13.0464819,14.0328301 12.4895275,14.108914 12.1365152,13.842417 L12.0588426,13.7748206 L6.89,8.606 L1.94115739,13.5565509 C1.59718099,13.9005273 0.983059585,13.8441019 0.56947885,13.4305211 C0.185439597,13.0464819 0.109355661,12.4895275 0.375852677,12.1365152 L0.443449068,12.0588426 L5.393,7.109 L0.225179373,1.94115739 C-0.118797035,1.59718099 -0.062371579,0.983059585 0.351209155,0.56947885 C0.735248408,0.185439597 1.29220283,0.109355661 1.64521513,0.375852677 L1.7228877,0.443449068 L6.89,5.611 L12.2771123,0.225179373 C12.6210887,-0.118797035 13.2352101,-0.062371579 13.6487908,0.351209155 Z" id="Combined-Shape"></path>
                </g>
            </g>
        </g>
    </g>
</svg>