<?xml version="1.0" encoding="UTF-8"?>
<svg width="20px" height="20px" viewBox="0 0 20 20" version="1.1" xmlns="http://www.w3.org/2000/svg" xmlns:xlink="http://www.w3.org/1999/xlink">
    <title>images/SVG/cookie</title>
    <g id="UI-Elements" stroke="none" stroke-width="1" fill="none" fill-rule="evenodd">
        <g id="Assets" transform="translate(-1285, -4963)" fill="#FFFFFF">
            <g id="cookie" transform="translate(1285, 4963)">
                <path d="M9.99059105,20 C8.62521028,20 7.33475893,19.7378277 6.11923702,19.2134831 C4.90371511,18.6891386 3.84221481,17.9733666 2.93473612,17.0661673 C2.02725743,16.158968 1.31126508,15.0977944 0.786759045,13.8826467 C0.262253015,12.667499 0,11.3774449 0,10.0124844 C0,8.63087807 0.262253015,7.33666251 0.786759045,6.1298377 C1.31126508,4.9230129 2.02309469,3.86183937 2.92224788,2.9463171 C3.82140108,2.03079484 4.87041314,1.31086142 6.06928406,0.786516854 C7.26815499,0.262172285 8.53825883,0 9.87959559,0 C10.2033573,0 10.5234226,0.0124843945 10.8397913,0.0374531835 C11.15616,0.0624219725 11.4725287,0.108198086 11.7888974,0.174781523 C11.6889915,0.840615897 11.730619,1.47732002 11.9137798,2.08489388 C12.0969407,2.69246775 12.3883329,3.22929671 12.7879565,3.69538077 C13.1875802,4.16146484 13.6704588,4.53599667 14.2365923,4.81897628 C14.8027257,5.10195589 15.4271377,5.24344569 16.1098281,5.24344569 C16.7259145,5.24344569 16.979842,5.22263837 16.8716106,5.18102372 C16.7633792,5.13940907 16.7092635,5.42655015 16.7092635,6.04244694 C16.7092635,6.87473991 17.0381205,7.59467333 17.6958344,8.20224719 C18.3535483,8.80982106 19.1070054,9.15522264 19.9562056,9.23845194 C20.0894135,10.6866417 19.9187409,12.0599251 19.4441878,13.3583021 C18.9696348,14.6566792 18.2744561,15.7969205 17.358652,16.7790262 C16.4428478,17.7611319 15.3522083,18.5434873 14.0867334,19.1260924 C12.8212585,19.7086975 11.4558777,20 9.99059105,20 Z M8.49494962,8.06491885 C8.92591042,8.06491885 9.29124968,7.91412401 9.59096741,7.61253433 C9.89068514,7.3109613 10.040544,6.94475239 10.040544,6.51390762 C10.040544,6.08307948 9.88970273,5.71785268 9.58802019,5.41822722 C9.28635429,5.11860175 8.92003262,4.96878901 8.48905517,4.96878901 C8.05809437,4.96878901 7.69275511,5.11958385 7.39303738,5.42117353 C7.09331965,5.72274657 6.94346078,6.08895547 6.94346078,6.51980025 C6.94346078,6.95062838 7.09430206,7.31585518 7.3959846,7.61548065 C7.6976505,7.91510612 8.06397217,8.06491885 8.49494962,8.06491885 Z M6.49683141,13.0586767 C6.9277922,13.0586767 7.29313147,12.9078818 7.5928492,12.6062921 C7.89256693,12.3047191 8.0424258,11.9385102 8.0424258,11.5076654 C8.0424258,11.0768373 7.89158452,10.7116105 7.58990198,10.411985 C7.28823608,10.1123596 6.92191441,9.96254682 6.49093696,9.96254682 C6.05997616,9.96254682 5.6946369,10.1133417 5.39491917,10.4149313 C5.09520144,10.7165044 4.94534257,11.0827133 4.94534257,11.5135581 C4.94534257,11.9443862 5.09618385,12.309613 5.39786639,12.6092385 C5.69953229,12.9088639 6.06585396,13.0586767 6.49683141,13.0586767 Z M12.9877684,14.0074906 C13.2708351,14.0074906 13.5081117,13.9117769 13.699598,13.7203496 C13.8910843,13.5289222 13.9868275,13.2917187 13.9868275,13.0087391 C13.9868275,12.7257595 13.8910843,12.488556 13.699598,12.2971286 C13.5081117,12.1057012 13.2708351,12.0099875 12.9877684,12.0099875 C12.7047016,12.0099875 12.4674251,12.1057012 12.2759388,12.2971286 C12.0844524,12.488556 11.9887093,12.7257595 11.9887093,13.0087391 C11.9887093,13.2917187 12.0844524,13.5289222 12.2759388,13.7203496 C12.4674251,13.9117769 12.7047016,14.0074906 12.9877684,14.0074906 Z M9.99059105,18.5018727 C12.3550309,18.5018727 14.3198472,17.7236787 15.8850398,16.1672909 C17.4502324,14.610903 18.3244091,12.6924677 18.5075699,10.411985 C17.6084167,10.0790678 16.8799361,9.58385352 16.3221281,8.92634207 C15.7643201,8.26883063 15.4188122,7.51560549 15.2856043,6.66666667 C13.9368745,6.48356221 12.8004448,5.90095714 11.8763151,4.91885144 C10.9521854,3.93674573 10.4235167,2.79650437 10.2903088,1.49812734 C9.05813589,1.44818976 7.90505517,1.64794007 6.83106663,2.09737828 C5.75707809,2.54681648 4.82462293,3.16271328 4.03370114,3.94506866 C3.24277935,4.72742405 2.62253015,5.64710778 2.17295355,6.70411985 C1.72337696,7.76113192 1.49858866,8.8639201 1.49858866,10.0124844 C1.49858866,12.3761964 2.32281242,14.3820225 3.97125994,16.0299625 C5.61970747,17.6779026 7.62615117,18.5018727 9.99059105,18.5018727 Z" id="Shape"></path>
            </g>
        </g>
    </g>
</svg>